<svg width="20" height="20" viewBox="0 0 20 20" fill="none" xmlns="http://www.w3.org/2000/svg">
<path fill-rule="evenodd" clip-rule="evenodd" d="M5.1722 17.0703C5.5942 17.0703 5.9372 17.4133 5.9372 17.8353C5.9372 18.2573 5.5942 18.5993 5.1722 18.5993C4.7502 18.5993 4.4082 18.2573 4.4082 17.8353C4.4082 17.4133 4.7502 17.0703 5.1722 17.0703Z" stroke="#FF8000" stroke-linecap="round" stroke-linejoin="round"/>
<path fill-rule="evenodd" clip-rule="evenodd" d="M16.4252 17.0703C16.8472 17.0703 17.1902 17.4133 17.1902 17.8353C17.1902 18.2573 16.8472 18.5993 16.4252 18.5993C16.0032 18.5993 15.6602 18.2573 15.6602 17.8353C15.6602 17.4133 16.0032 17.0703 16.4252 17.0703Z" stroke="#FF8000" stroke-linecap="round" stroke-linejoin="round"/>
<path d="M0.5 0.5L2.58 0.86L3.543 12.333C3.621 13.268 4.402 13.986 5.34 13.986H16.252C17.148 13.986 17.908 13.328 18.037 12.44L18.986 5.882C19.103 5.073 18.476 4.349 17.659 4.349H2.914" stroke="#FF8000" stroke-linecap="round" stroke-linejoin="round"/>
<path d="M11.875 8.04492H14.648" stroke="#FF8000" stroke-linecap="round" stroke-linejoin="round"/>
</svg>
