<svg width="19" height="19" viewBox="0 0 19 19" fill="none" xmlns="http://www.w3.org/2000/svg">
<g clip-path="url(#clip0_1_4481)">
<path d="M18.33 9.165C18.33 4.10334 14.2267 0 9.165 0C4.10334 0 0 4.10334 0 9.165C0 13.7395 3.35153 17.5311 7.73297 18.2187V11.8143H5.40592V9.165H7.73297V7.14584C7.73297 4.84886 9.10128 3.58008 11.1948 3.58008C12.1975 3.58008 13.2463 3.75908 13.2463 3.75908V6.01453H12.0906C10.9521 6.01453 10.597 6.72102 10.597 7.44585V9.165H13.1389L12.7325 11.8143H10.597V18.2187C14.9785 17.5311 18.33 13.7396 18.33 9.165Z" fill="#1877F2"/>
<path d="M12.7329 11.8143L13.1392 9.165H10.5974V7.44585C10.5974 6.72095 10.9524 6.01453 12.091 6.01453H13.2466V3.75908C13.2466 3.75908 12.1978 3.58008 11.195 3.58008C9.10161 3.58008 7.7333 4.84886 7.7333 7.14584V9.165H5.40625V11.8143H7.7333V18.2187C8.20703 18.2929 8.68582 18.3301 9.16533 18.33C9.64484 18.3301 10.1236 18.2929 10.5974 18.2187V11.8143H12.7329Z" fill="white"/>
</g>
<defs>
<clipPath id="clip0_1_4481">
<path d="M0 5C0 2.23858 2.23858 0 5 0H13.33C16.0914 0 18.33 2.23858 18.33 5V13.33C18.33 16.0914 16.0914 18.33 13.33 18.33H5C2.23858 18.33 0 16.0914 0 13.33V5Z" fill="white"/>
</clipPath>
</defs>
</svg>
