<svg width="22" height="22" viewBox="0 0 22 22" fill="none" xmlns="http://www.w3.org/2000/svg">
<path d="M19.9881 9.20487H19.2497V9.16683H10.9997V12.8335H16.1802C15.4244 14.968 13.3935 16.5002 10.9997 16.5002C7.9623 16.5002 5.49967 14.0375 5.49967 11.0002C5.49967 7.96279 7.9623 5.50016 10.9997 5.50016C12.4017 5.50016 13.6773 6.02908 14.6485 6.89304L17.2413 4.30025C15.6041 2.77445 13.4142 1.8335 10.9997 1.8335C5.93738 1.8335 1.83301 5.93787 1.83301 11.0002C1.83301 16.0625 5.93738 20.1668 10.9997 20.1668C16.062 20.1668 20.1663 16.0625 20.1663 11.0002C20.1663 10.3855 20.1031 9.78558 19.9881 9.20487Z" fill="#FFC107"/>
<path d="M2.89062 6.73354L5.90233 8.94225C6.71725 6.92466 8.69083 5.50016 11.0004 5.50016C12.4024 5.50016 13.678 6.02908 14.6492 6.89304L17.242 4.30025C15.6048 2.77445 13.4149 1.8335 11.0004 1.8335C7.47946 1.8335 4.42604 3.82129 2.89062 6.73354Z" fill="#FF3D00"/>
<path d="M11.0005 20.167C13.3682 20.167 15.5196 19.2609 17.1463 17.7873L14.3092 15.3866C13.3579 16.11 12.1956 16.5013 11.0005 16.5003C8.61622 16.5003 6.59176 14.98 5.82909 12.8584L2.83984 15.1615C4.35693 18.1301 7.43784 20.167 11.0005 20.167Z" fill="#4CAF50"/>
<path d="M19.9884 9.20503H19.25V9.16699H11V12.8337H16.1805C15.819 13.8495 15.1678 14.7372 14.3073 15.387L14.3087 15.3861L17.1458 17.7869C16.945 17.9693 20.1667 15.5837 20.1667 11.0003C20.1667 10.3857 20.1034 9.78574 19.9884 9.20503Z" fill="#1976D2"/>
</svg>
